<svg id="Capa_1" enable-background="new 0 0 512 512" height="512" viewBox="0 0 512 512" width="512" xmlns="http://www.w3.org/2000/svg"><g><circle cx="211" cy="406" r="15"/><path d="m211 0c-41.353 0-75 33.647-75 75v258.036c-19.146 19.614-30 45.85-30 72.964 0 57.891 47.109 106 105 106s105-48.109 105-106c0-27.114-10.854-53.35-30-72.964v-258.036c0-41.353-33.647-75-75-75zm0 451c-24.814 0-45-20.186-45-45 0-19.53 12.578-36.024 30-42.237v-272.763h30v272.763c17.422 6.213 30 22.707 30 42.237 0 24.814-20.186 45-45 45z"/><path d="m316 91h60v30h-60z"/><path d="m316 151h90v30h-90z"/><path d="m316 211h60v30h-60z"/><path d="m316 271h90v30h-90z"/></g></svg>